<svg width="18" height="19" viewBox="0 0 18 19" fill="none" xmlns="http://www.w3.org/2000/svg">
<path d="M9.16683 7.49992V4.99992H6.66683V3.33325H9.16683V0.833252H10.8335V3.33325H13.3335V4.99992H10.8335V7.49992H9.16683ZM5.8335 18.3333C5.37516 18.3333 4.9828 18.1701 4.65641 17.8437C4.33002 17.5173 4.16683 17.1249 4.16683 16.6666C4.16683 16.2083 4.33002 15.8159 4.65641 15.4895C4.9828 15.1631 5.37516 14.9999 5.8335 14.9999C6.29183 14.9999 6.68419 15.1631 7.01058 15.4895C7.33697 15.8159 7.50016 16.2083 7.50016 16.6666C7.50016 17.1249 7.33697 17.5173 7.01058 17.8437C6.68419 18.1701 6.29183 18.3333 5.8335 18.3333ZM14.1668 18.3333C13.7085 18.3333 13.3161 18.1701 12.9897 17.8437C12.6634 17.5173 12.5002 17.1249 12.5002 16.6666C12.5002 16.2083 12.6634 15.8159 12.9897 15.4895C13.3161 15.1631 13.7085 14.9999 14.1668 14.9999C14.6252 14.9999 15.0175 15.1631 15.3439 15.4895C15.6703 15.8159 15.8335 16.2083 15.8335 16.6666C15.8335 17.1249 15.6703 17.5173 15.3439 17.8437C15.0175 18.1701 14.6252 18.3333 14.1668 18.3333ZM5.8335 14.1666C5.2085 14.1666 4.72933 13.8923 4.396 13.3437C4.06266 12.7951 4.05572 12.2499 4.37516 11.7083L5.50016 9.66658L2.50016 3.33325H0.833496V1.66659H3.56266L7.10433 9.16658H12.9585L16.1877 3.33325L17.646 4.12492L14.4168 9.95825C14.2641 10.236 14.0627 10.4513 13.8127 10.6041C13.5627 10.7569 13.2779 10.8333 12.9585 10.8333H6.75016L5.8335 12.4999H15.8335V14.1666H5.8335Z" fill="#727C8C"/>
</svg>
