<svg width="20" height="14" viewBox="0 0 20 14" fill="none" xmlns="http://www.w3.org/2000/svg">
<path d="M0.833496 13.6666V11.3333C0.833496 10.861 0.955024 10.427 1.19808 10.0312C1.44114 9.63533 1.76405 9.33325 2.16683 9.12492C3.02794 8.69436 3.90294 8.37145 4.79183 8.15617C5.68072 7.94089 6.5835 7.83325 7.50016 7.83325C8.41683 7.83325 9.31961 7.94089 10.2085 8.15617C11.0974 8.37145 11.9724 8.69436 12.8335 9.12492C13.2363 9.33325 13.5592 9.63533 13.8022 10.0312C14.0453 10.427 14.1668 10.861 14.1668 11.3333V13.6666H0.833496ZM15.8335 13.6666V11.1666C15.8335 10.5555 15.6634 9.96867 15.3231 9.40617C14.9828 8.84367 14.5002 8.36103 13.8752 7.95825C14.5835 8.04159 15.2502 8.18395 15.8752 8.38533C16.5002 8.58672 17.0835 8.83325 17.6252 9.12492C18.1252 9.4027 18.5071 9.71172 18.771 10.052C19.0349 10.3923 19.1668 10.7638 19.1668 11.1666V13.6666H15.8335ZM7.50016 6.99992C6.5835 6.99992 5.79877 6.67353 5.146 6.02075C4.49322 5.36797 4.16683 4.58325 4.16683 3.66659C4.16683 2.74992 4.49322 1.9652 5.146 1.31242C5.79877 0.659641 6.5835 0.333252 7.50016 0.333252C8.41683 0.333252 9.20155 0.659641 9.85433 1.31242C10.5071 1.9652 10.8335 2.74992 10.8335 3.66659C10.8335 4.58325 10.5071 5.36797 9.85433 6.02075C9.20155 6.67353 8.41683 6.99992 7.50016 6.99992ZM15.8335 3.66659C15.8335 4.58325 15.5071 5.36797 14.8543 6.02075C14.2016 6.67353 13.4168 6.99992 12.5002 6.99992C12.3474 6.99992 12.1529 6.98256 11.9168 6.94783C11.6807 6.91311 11.4863 6.87492 11.3335 6.83325C11.7085 6.38881 11.9967 5.89575 12.1981 5.35409C12.3995 4.81242 12.5002 4.24992 12.5002 3.66659C12.5002 3.08325 12.3995 2.52075 12.1981 1.97909C11.9967 1.43742 11.7085 0.944363 11.3335 0.499919C11.5279 0.430474 11.7224 0.385335 11.9168 0.364502C12.1113 0.343669 12.3057 0.333252 12.5002 0.333252C13.4168 0.333252 14.2016 0.659641 14.8543 1.31242C15.5071 1.9652 15.8335 2.74992 15.8335 3.66659ZM2.50016 11.9999H12.5002V11.3333C12.5002 11.1805 12.462 11.0416 12.3856 10.9166C12.3092 10.7916 12.2085 10.6944 12.0835 10.6249C11.3335 10.2499 10.5766 9.96867 9.81266 9.78117C9.04877 9.59367 8.27794 9.49992 7.50016 9.49992C6.72239 9.49992 5.95155 9.59367 5.18766 9.78117C4.42377 9.96867 3.66683 10.2499 2.91683 10.6249C2.79183 10.6944 2.69114 10.7916 2.61475 10.9166C2.53836 11.0416 2.50016 11.1805 2.50016 11.3333V11.9999ZM7.50016 5.33325C7.9585 5.33325 8.35086 5.17006 8.67725 4.84367C9.00364 4.51728 9.16683 4.12492 9.16683 3.66659C9.16683 3.20825 9.00364 2.81589 8.67725 2.4895C8.35086 2.16311 7.9585 1.99992 7.50016 1.99992C7.04183 1.99992 6.64947 2.16311 6.32308 2.4895C5.99669 2.81589 5.8335 3.20825 5.8335 3.66659C5.8335 4.12492 5.99669 4.51728 6.32308 4.84367C6.64947 5.17006 7.04183 5.33325 7.50016 5.33325Z" fill="#727C8C"/>
</svg>
