<svg width="18" height="14" viewBox="0 0 18 14" fill="none" xmlns="http://www.w3.org/2000/svg">
<path d="M6.6665 10.3333L8.99984 8.58325L11.2915 10.3333L10.4165 7.49992L12.7498 5.66659H9.9165L8.99984 2.83325L8.08317 5.66659H5.24984L7.5415 7.49992L6.6665 10.3333ZM2.33317 13.6666C1.87484 13.6666 1.48248 13.5034 1.15609 13.177C0.829698 12.8506 0.666504 12.4583 0.666504 11.9999V8.66658C1.12484 8.66658 1.5172 8.50339 1.84359 8.177C2.16998 7.85061 2.33317 7.45825 2.33317 6.99992C2.33317 6.54158 2.16998 6.14922 1.84359 5.82284C1.5172 5.49645 1.12484 5.33325 0.666504 5.33325V1.99992C0.666504 1.54159 0.829698 1.14922 1.15609 0.822835C1.48248 0.496446 1.87484 0.333252 2.33317 0.333252H15.6665C16.1248 0.333252 16.5172 0.496446 16.8436 0.822835C17.17 1.14922 17.3332 1.54159 17.3332 1.99992V5.33325C16.8748 5.33325 16.4825 5.49645 16.1561 5.82284C15.8297 6.14922 15.6665 6.54158 15.6665 6.99992C15.6665 7.45825 15.8297 7.85061 16.1561 8.177C16.4825 8.50339 16.8748 8.66658 17.3332 8.66658V11.9999C17.3332 12.4583 17.17 12.8506 16.8436 13.177C16.5172 13.5034 16.1248 13.6666 15.6665 13.6666H2.33317ZM2.33317 11.9999H15.6665V9.87492C15.1526 9.56936 14.7464 9.16311 14.4478 8.65617C14.1491 8.14922 13.9998 7.59714 13.9998 6.99992C13.9998 6.4027 14.1491 5.85061 14.4478 5.34367C14.7464 4.83672 15.1526 4.43047 15.6665 4.12492V1.99992H2.33317V4.12492C2.84706 4.43047 3.25331 4.83672 3.55192 5.34367C3.85053 5.85061 3.99984 6.4027 3.99984 6.99992C3.99984 7.59714 3.85053 8.14922 3.55192 8.65617C3.25331 9.16311 2.84706 9.56936 2.33317 9.87492V11.9999Z" fill="#727C8C"/>
</svg>
