<svg width="20" height="18" viewBox="0 0 20 18" fill="none" xmlns="http://www.w3.org/2000/svg">
<path d="M9.89603 15.6667C9.95158 15.6667 10.0071 15.6529 10.0627 15.6251C10.1183 15.5973 10.1599 15.5695 10.1877 15.5417L17.021 8.70842C17.1877 8.54175 17.3092 8.35425 17.3856 8.14592C17.462 7.93758 17.5002 7.72925 17.5002 7.52092C17.5002 7.29869 17.462 7.08689 17.3856 6.8855C17.3092 6.68411 17.1877 6.50703 17.021 6.35425L13.4794 2.81258C13.3266 2.64591 13.1495 2.52439 12.9481 2.448C12.7467 2.37161 12.5349 2.33341 12.3127 2.33341C12.1044 2.33341 11.896 2.37161 11.6877 2.448C11.4794 2.52439 11.2919 2.64591 11.1252 2.81258L10.896 3.04175L12.4377 4.60425C12.646 4.79869 12.7988 5.02091 12.896 5.27091C12.9933 5.52091 13.0419 5.7848 13.0419 6.06258C13.0419 6.64591 12.8439 7.1355 12.4481 7.53133C12.0523 7.92716 11.5627 8.12508 10.9794 8.12508C10.7016 8.12508 10.4342 8.07647 10.1773 7.97925C9.92033 7.88203 9.69464 7.73619 9.5002 7.54175L7.9377 6.00008L4.29186 9.64592C4.2502 9.68758 4.21895 9.73272 4.19811 9.78133C4.17728 9.82994 4.16686 9.88203 4.16686 9.93758C4.16686 10.0487 4.20853 10.1494 4.29186 10.2397C4.3752 10.3299 4.47242 10.3751 4.58353 10.3751C4.63908 10.3751 4.69464 10.3612 4.7502 10.3334C4.80575 10.3056 4.84742 10.2779 4.8752 10.2501L7.70853 7.41675L8.8752 8.58341L6.0627 11.4167C6.02103 11.4584 5.98978 11.5036 5.96895 11.5522C5.94811 11.6008 5.9377 11.6529 5.9377 11.7084C5.9377 11.8195 5.97936 11.9167 6.0627 12.0001C6.14603 12.0834 6.24325 12.1251 6.35436 12.1251C6.40992 12.1251 6.46547 12.1112 6.52103 12.0834C6.57658 12.0556 6.61825 12.0279 6.64603 12.0001L9.47936 9.18758L10.646 10.3542L7.83353 13.1876C7.79186 13.2154 7.76061 13.257 7.73978 13.3126C7.71895 13.3681 7.70853 13.4237 7.70853 13.4792C7.70853 13.5904 7.7502 13.6876 7.83353 13.7709C7.91686 13.8542 8.01408 13.8959 8.1252 13.8959C8.18075 13.8959 8.23283 13.8855 8.28145 13.8647C8.33006 13.8438 8.3752 13.8126 8.41686 13.7709L11.2502 10.9584L12.4169 12.1251L9.58353 14.9584C9.54186 15.0001 9.51061 15.0452 9.48978 15.0938C9.46895 15.1424 9.45853 15.1945 9.45853 15.2501C9.45853 15.3612 9.50367 15.4584 9.59395 15.5417C9.68422 15.6251 9.78492 15.6667 9.89603 15.6667ZM9.8752 17.3334C9.36131 17.3334 8.90645 17.1633 8.51061 16.823C8.11478 16.4827 7.88214 16.0556 7.8127 15.5417C7.34047 15.4723 6.94464 15.2779 6.6252 14.9584C6.30575 14.639 6.11131 14.2431 6.04186 13.7709C5.56964 13.7015 5.17728 13.5036 4.86478 13.1772C4.55228 12.8508 4.36131 12.4584 4.29186 12.0001C3.76408 11.9306 3.33353 11.7015 3.0002 11.3126C2.66686 10.9237 2.5002 10.4654 2.5002 9.93758C2.5002 9.6598 2.55228 9.39244 2.65645 9.1355C2.76061 8.87855 2.90992 8.65286 3.10436 8.45842L7.9377 3.64591L10.6669 6.37508C10.6946 6.41675 10.7363 6.448 10.7919 6.46883C10.8474 6.48966 10.903 6.50008 10.9585 6.50008C11.0835 6.50008 11.1877 6.46189 11.271 6.3855C11.3544 6.30911 11.396 6.20841 11.396 6.08341C11.396 6.02786 11.3856 5.9723 11.3648 5.91675C11.3439 5.86119 11.3127 5.81953 11.271 5.79175L8.29186 2.81258C8.13908 2.64591 7.962 2.52439 7.76061 2.448C7.55922 2.37161 7.34742 2.33341 7.1252 2.33341C6.91686 2.33341 6.70853 2.37161 6.5002 2.448C6.29186 2.52439 6.10436 2.64591 5.9377 2.81258L3.0002 5.77091C2.8752 5.89591 2.77103 6.04175 2.6877 6.20841C2.60436 6.37508 2.54881 6.54175 2.52103 6.70841C2.49325 6.87508 2.49325 7.04522 2.52103 7.21883C2.54881 7.39244 2.60436 7.55564 2.6877 7.70841L1.47936 8.91675C1.24325 8.5973 1.06964 8.24661 0.958529 7.86466C0.847418 7.48272 0.805751 7.0973 0.833529 6.70841C0.861306 6.31953 0.958529 5.94105 1.1252 5.573C1.29186 5.20494 1.52103 4.87508 1.8127 4.58341L4.7502 1.64591C5.08353 1.32647 5.45506 1.08341 5.86478 0.916748C6.2745 0.750081 6.69464 0.666748 7.1252 0.666748C7.55575 0.666748 7.97589 0.750081 8.38561 0.916748C8.79533 1.08341 9.15992 1.32647 9.47936 1.64591L9.70853 1.87508L9.9377 1.64591C10.271 1.32647 10.6426 1.08341 11.0523 0.916748C11.462 0.750081 11.8821 0.666748 12.3127 0.666748C12.7433 0.666748 13.1634 0.750081 13.5731 0.916748C13.9828 1.08341 14.3474 1.32647 14.6669 1.64591L18.1877 5.16675C18.5071 5.48619 18.7502 5.85425 18.9169 6.27091C19.0835 6.68758 19.1669 7.11119 19.1669 7.54175C19.1669 7.9723 19.0835 8.39244 18.9169 8.80216C18.7502 9.21189 18.5071 9.57647 18.1877 9.89591L11.3544 16.7084C11.1599 16.9029 10.9342 17.0556 10.6773 17.1667C10.4203 17.2779 10.153 17.3334 9.8752 17.3334Z" fill="#727C8C"/>
</svg>
