<svg width="18" height="18" viewBox="0 0 18 18" fill="none" xmlns="http://www.w3.org/2000/svg">
<path d="M1.49984 15.6667V6.25008C1.26373 6.0973 1.06581 5.90286 0.906087 5.66675C0.746365 5.43064 0.666504 5.15286 0.666504 4.83341V2.33341C0.666504 1.87508 0.829698 1.48272 1.15609 1.15633C1.48248 0.829943 1.87484 0.666748 2.33317 0.666748H15.6665C16.1248 0.666748 16.5172 0.829943 16.8436 1.15633C17.17 1.48272 17.3332 1.87508 17.3332 2.33341V4.83341C17.3332 5.15286 17.2533 5.43064 17.0936 5.66675C16.9339 5.90286 16.7359 6.0973 16.4998 6.25008V15.6667C16.4998 16.1251 16.3366 16.5174 16.0103 16.8438C15.6839 17.1702 15.2915 17.3334 14.8332 17.3334H3.1665C2.70817 17.3334 2.31581 17.1702 1.98942 16.8438C1.66303 16.5174 1.49984 16.1251 1.49984 15.6667ZM3.1665 6.50008V15.6667H14.8332V6.50008H3.1665ZM15.6665 4.83341V2.33341H2.33317V4.83341H15.6665ZM6.49984 10.6667H11.4998V9.00008H6.49984V10.6667Z" fill="#727C8C"/>
</svg>
