<svg width="14" height="18" viewBox="0 0 14 18" fill="none" xmlns="http://www.w3.org/2000/svg">
<path d="M3.66683 15.6667H10.3335V13.1667C10.3335 12.2501 10.0071 11.4654 9.35433 10.8126C8.70155 10.1598 7.91683 9.83341 7.00016 9.83341C6.0835 9.83341 5.29877 10.1598 4.646 10.8126C3.99322 11.4654 3.66683 12.2501 3.66683 13.1667V15.6667ZM7.00016 8.16675C7.91683 8.16675 8.70155 7.84036 9.35433 7.18758C10.0071 6.5348 10.3335 5.75008 10.3335 4.83341V2.33341H3.66683V4.83341C3.66683 5.75008 3.99322 6.5348 4.646 7.18758C5.29877 7.84036 6.0835 8.16675 7.00016 8.16675ZM0.333496 17.3334V15.6667H2.00016V13.1667C2.00016 12.3195 2.19808 11.5244 2.59391 10.7813C2.98975 10.0383 3.54183 9.44453 4.25016 9.00008C3.54183 8.55564 2.98975 7.96189 2.59391 7.21883C2.19808 6.47578 2.00016 5.68064 2.00016 4.83341V2.33341H0.333496V0.666748H13.6668V2.33341H12.0002V4.83341C12.0002 5.68064 11.8022 6.47578 11.4064 7.21883C11.0106 7.96189 10.4585 8.55564 9.75016 9.00008C10.4585 9.44453 11.0106 10.0383 11.4064 10.7813C11.8022 11.5244 12.0002 12.3195 12.0002 13.1667V15.6667H13.6668V17.3334H0.333496Z" fill="#727C8C"/>
</svg>
